<?xml version="1.0" standalone="no"?>
<!DOCTYPE svg PUBLIC "-//W3C//DTD SVG 20010904//EN"
 "http://www.w3.org/TR/2001/REC-SVG-20010904/DTD/svg10.dtd">
<svg version="1.0" xmlns="http://www.w3.org/2000/svg"
 width="1860.000000pt" height="686.000000pt" viewBox="0 0 1860.000000 686.000000"
 preserveAspectRatio="xMidYMid meet">

<g transform="translate(0.000000,686.000000) scale(0.100000,-0.100000)"
fill="#000000" stroke="none">
<path d="M5980 5600 l0 -520 40 0 40 0 0 520 0 520 -40 0 -40 0 0 -520z"/>
<path d="M12880 5600 l0 -520 40 0 40 0 0 520 0 520 -40 0 -40 0 0 -520z"/>
<path d="M6352 5795 c-44 -20 -112 -73 -112 -89 0 -7 5 -17 11 -23 8 -8 23 -2
56 23 24 19 49 34 54 34 19 0 19 -51 -1 -183 -43 -296 -17 -351 135 -279 139
66 304 306 307 445 1 41 -3 53 -21 68 -45 37 -131 12 -185 -52 -25 -30 -26
-33 -10 -50 16 -17 18 -17 49 16 18 19 39 35 47 35 89 0 9 -226 -119 -340 -46
-40 -102 -72 -115 -64 -13 8 -9 92 12 224 23 146 25 200 7 223 -17 24 -75 30
-115 12z"/>
<path d="M10422 5795 c-44 -20 -112 -73 -112 -89 0 -7 5 -17 11 -23 8 -8 23
-2 56 23 24 19 49 34 54 34 19 0 19 -51 -1 -183 -43 -296 -17 -351 135 -279
139 66 304 306 307 445 1 41 -3 53 -21 68 -45 37 -131 12 -185 -52 -25 -30
-26 -33 -10 -50 16 -17 18 -17 49 16 18 19 39 35 47 35 89 0 9 -226 -119 -340
-46 -40 -102 -72 -115 -64 -13 8 -9 92 12 224 23 146 25 200 7 223 -17 24 -75
30 -115 12z"/>
<path d="M9250 5590 l0 -40 345 0 345 0 0 40 0 40 -345 0 -345 0 0 -40z"/>
<path d="M11340 5560 c-9 -17 -8 -20 10 -20 11 0 23 -7 27 -16 5 -14 -78 -429
-95 -472 -3 -10 6 -12 38 -10 l44 3 22 100 c26 121 29 130 67 178 57 73 117
80 117 14 0 -18 -9 -66 -20 -107 -20 -77 -25 -147 -12 -166 28 -42 93 -38 149
11 33 28 36 34 24 49 -12 14 -16 14 -43 -9 -59 -50 -69 -24 -38 104 42 173 29
221 -61 221 -39 0 -56 -6 -92 -34 l-45 -34 14 61 c8 34 19 78 24 97 6 19 10
38 10 43 0 4 -29 7 -65 7 -54 0 -66 -3 -75 -20z"/>
<path d="M11028 5493 c-16 -33 -33 -52 -55 -62 -43 -19 -51 -41 -14 -41 15 0
30 -2 33 -5 3 -3 -5 -49 -18 -103 -27 -112 -30 -189 -9 -218 33 -48 129 -37
184 20 29 30 32 38 21 51 -11 13 -16 12 -41 -9 -59 -50 -99 -41 -99 21 0 18
12 81 26 138 l26 105 69 0 c67 0 69 1 69 25 0 24 -2 25 -64 25 l-64 0 9 38
c13 57 12 62 -21 62 -26 0 -33 -7 -52 -47z"/>
<path d="M6825 5421 c-16 -10 -38 -27 -48 -38 -15 -18 -16 -22 -3 -33 13 -10
20 -8 42 9 35 27 64 28 64 0 0 -18 -52 -257 -66 -301 -5 -15 1 -18 38 -18 l44
0 22 108 c25 119 57 183 111 219 38 26 40 26 61 13 20 -13 15 -71 -19 -217
l-28 -123 42 0 43 0 17 93 c20 107 35 148 72 195 27 36 78 63 100 55 19 -7 16
-73 -8 -165 -25 -102 -23 -145 12 -170 22 -17 32 -18 65 -9 22 6 54 26 72 44
29 30 31 35 18 46 -13 11 -21 9 -47 -13 -62 -53 -69 -29 -34 123 27 121 27
150 -3 184 -24 27 -100 23 -141 -7 -18 -13 -38 -32 -45 -42 -13 -17 -14 -16
-21 7 -14 44 -35 59 -86 59 -47 0 -90 -24 -126 -70 -10 -13 -13 -10 -19 15 -4
17 -11 36 -17 43 -14 18 -78 15 -112 -7z"/>
<path d="M7704 5421 c-84 -38 -144 -142 -144 -249 0 -95 43 -138 135 -136 54
2 137 38 170 74 14 15 13 18 -4 34 -18 16 -20 16 -48 -8 -87 -73 -173 -56
-173 34 0 25 5 40 13 40 49 1 155 23 187 40 69 35 92 119 45 165 -20 21 -34
25 -82 25 -35 0 -74 -8 -99 -19z m114 -33 c19 -19 14 -63 -10 -85 -40 -35
-148 -59 -148 -33 0 22 30 68 65 99 37 32 72 40 93 19z"/>
<path d="M8115 5408 c-69 -46 -108 -124 -113 -223 -5 -85 12 -126 56 -144 44
-18 107 2 154 49 l38 38 0 -34 c0 -75 90 -81 158 -11 29 30 31 35 18 46 -13
11 -21 9 -47 -13 -64 -54 -69 -30 -30 147 18 78 35 150 38 161 5 16 1 18 -28
12 -38 -8 -37 -8 -129 0 -62 5 -68 4 -115 -28z m146 -18 c47 -26 7 -184 -66
-257 -48 -49 -77 -54 -101 -18 -37 57 12 222 79 264 36 23 59 26 88 11z"/>
<path d="M8603 5423 c-40 -20 -67 -73 -58 -113 7 -31 55 -79 105 -105 52 -27
66 -82 28 -109 -47 -33 -138 -10 -138 35 0 15 -6 20 -22 17 -18 -2 -25 -12
-32 -46 -5 -23 -7 -45 -4 -47 3 -3 40 -10 84 -16 74 -11 83 -10 131 11 91 39
109 127 37 189 -19 17 -39 31 -44 31 -20 0 -70 53 -70 75 0 66 116 73 140 9
16 -41 45 -31 57 22 10 43 9 46 -14 55 -39 15 -164 10 -200 -8z"/>
<path d="M11934 5421 c-84 -38 -144 -142 -144 -249 0 -95 43 -138 135 -136 54
2 137 38 170 74 14 15 13 18 -4 34 -18 16 -20 16 -48 -8 -87 -73 -173 -56
-173 34 0 25 5 40 13 40 49 1 155 23 187 40 69 35 92 119 45 165 -20 21 -34
25 -82 25 -35 0 -74 -8 -99 -19z m114 -33 c19 -19 14 -63 -10 -85 -40 -35
-148 -59 -148 -33 0 22 30 68 65 99 37 32 72 40 93 19z"/>
<path d="M12362 5419 c-82 -41 -132 -133 -132 -244 0 -96 63 -151 160 -139 64
8 102 26 143 69 44 45 67 110 67 188 0 100 -45 147 -142 147 -34 0 -68 -8 -96
-21z m137 -45 c25 -32 27 -77 5 -155 -22 -79 -74 -139 -119 -139 -59 0 -82 43
-71 128 20 141 128 238 185 166z"/>
<path d="M1297 5163 c-13 -13 -7 -28 16 -38 16 -7 23 -20 25 -45 3 -41 -111
-568 -133 -610 -8 -15 -23 -30 -35 -33 -11 -3 -20 -12 -20 -21 0 -14 28 -16
249 -16 l249 0 22 83 c12 45 24 90 26 100 4 13 -1 17 -24 17 -24 0 -35 -9 -63
-52 -53 -80 -70 -89 -188 -95 -82 -5 -101 -3 -100 8 0 8 15 79 33 159 l33 145
67 3 c77 3 96 -6 96 -49 0 -25 4 -29 29 -29 29 0 30 1 54 103 13 56 22 105 20
110 -2 4 -15 7 -28 7 -17 0 -29 -9 -40 -30 -21 -41 -43 -50 -120 -50 -63 0
-65 1 -60 23 9 40 55 250 55 254 0 1 49 3 109 3 102 0 111 -2 125 -22 9 -12
16 -39 16 -60 0 -36 1 -38 33 -38 l33 0 17 83 c9 45 17 85 17 90 0 9 -504 10
-513 0z"/>
<path d="M14831 5100 c-136 -82 -136 -82 -122 -109 11 -20 12 -20 76 15 36 20
72 33 80 30 13 -5 15 -46 15 -274 0 -311 3 -302 -95 -310 -50 -4 -55 -7 -55
-28 l0 -24 208 2 c199 3 207 4 207 23 0 17 -9 21 -60 26 -99 11 -95 -5 -95
385 l0 334 -22 0 c-13 -1 -74 -32 -137 -70z"/>
<path d="M15448 5150 c-90 -48 -137 -155 -145 -336 -7 -130 7 -227 43 -302 31
-64 73 -98 142 -113 124 -29 224 32 272 167 23 62 25 84 25 224 0 121 -4 168
-18 213 -20 66 -75 133 -124 154 -48 20 -151 16 -195 -7z m146 -45 c76 -50
111 -359 61 -544 -37 -139 -165 -153 -209 -24 -41 119 -41 402 -1 501 30 72
96 101 149 67z"/>
<path d="M16078 5150 c-90 -48 -137 -155 -145 -336 -7 -130 7 -227 43 -302 31
-64 73 -98 142 -113 124 -29 224 32 272 167 23 62 25 84 25 224 0 121 -4 168
-18 213 -20 66 -75 133 -124 154 -48 20 -151 16 -195 -7z m146 -45 c76 -50
111 -359 61 -544 -37 -139 -165 -153 -209 -24 -41 119 -41 402 -1 501 30 72
96 101 149 67z"/>
<path d="M16665 5160 c-28 -12 -62 -45 -82 -83 -14 -25 -18 -56 -18 -152 0
-136 12 -170 76 -213 29 -20 44 -23 96 -20 77 5 109 26 143 94 22 43 25 62 25
149 -1 168 -48 236 -165 234 -30 0 -64 -4 -75 -9z m96 -40 c33 -18 51 -70 57
-161 8 -142 -22 -221 -83 -221 -61 0 -89 64 -88 202 0 107 18 165 55 180 31
12 36 12 59 0z"/>
<path d="M16970 4768 c-134 -222 -245 -406 -247 -410 -2 -5 16 -8 41 -8 l44 0
241 399 c133 220 241 405 241 410 0 6 -17 11 -39 11 l-38 0 -243 -402z"/>
<path d="M13655 5010 l-29 -30 122 -123 c67 -67 122 -127 122 -133 0 -6 -54
-64 -120 -128 -66 -64 -120 -120 -120 -124 0 -5 11 -19 25 -32 l26 -24 102
100 c56 55 115 111 130 124 l28 24 124 -124 125 -125 30 30 30 30 -125 125
-124 124 124 131 124 132 -27 26 -27 27 -127 -127 -128 -128 -128 128 -128
127 -29 -30z"/>
<path d="M1945 4931 c-22 -10 -55 -34 -73 -53 -31 -33 -32 -35 -14 -51 17 -16
20 -15 43 9 35 38 57 48 75 33 21 -17 18 -43 -31 -256 -25 -107 -45 -199 -45
-204 0 -5 22 -9 49 -9 39 0 51 4 55 18 2 9 17 73 31 142 29 134 49 181 102
246 56 69 123 81 123 23 0 -15 7 -19 34 -19 33 0 35 2 45 50 6 28 11 57 11 65
0 31 -91 30 -151 0 -14 -8 -47 -35 -72 -61 l-47 -47 0 40 c0 77 -60 110 -135
74z"/>
<path d="M2485 4931 c-22 -10 -55 -34 -73 -53 -31 -33 -32 -35 -14 -51 17 -16
20 -15 43 9 35 38 57 48 75 33 21 -17 18 -43 -31 -256 -25 -107 -45 -199 -45
-204 0 -5 22 -9 49 -9 39 0 51 4 55 18 2 9 17 73 31 142 29 134 49 181 102
246 56 69 123 81 123 23 0 -15 7 -19 34 -19 33 0 35 2 45 50 6 28 11 57 11 65
0 31 -91 30 -151 0 -14 -8 -47 -35 -72 -61 l-47 -47 0 40 c0 77 -60 110 -135
74z"/>
<path d="M3223 4940 c-112 -23 -192 -109 -228 -247 -35 -136 -8 -239 75 -280
103 -53 257 -8 325 95 58 87 88 234 65 316 -16 57 -62 102 -120 115 -51 12
-59 12 -117 1z m116 -78 c22 -24 23 -31 18 -117 -8 -142 -56 -250 -129 -289
-32 -18 -40 -18 -78 -7 -70 21 -84 88 -48 241 41 173 158 258 237 172z"/>
<path d="M3645 4931 c-22 -10 -55 -34 -73 -53 -31 -33 -32 -35 -14 -51 17 -16
20 -15 43 9 35 38 57 48 75 33 21 -17 18 -43 -31 -256 -25 -107 -45 -199 -45
-204 0 -5 22 -9 49 -9 39 0 51 4 55 18 2 9 17 73 31 142 29 134 49 181 102
246 56 69 123 81 123 23 0 -15 7 -19 34 -19 33 0 35 2 45 50 6 28 11 57 11 65
0 31 -91 30 -151 0 -14 -8 -47 -35 -72 -61 l-47 -47 0 40 c0 77 -60 110 -135
74z"/>
<path d="M4490 4840 l0 -40 345 0 345 0 0 40 0 40 -345 0 -345 0 0 -40z"/>
<path d="M17214 4810 c-33 -13 -82 -77 -95 -122 -6 -24 -9 -85 -7 -138 4 -109
21 -149 79 -188 29 -20 44 -23 96 -20 77 5 109 26 143 94 22 43 25 62 25 149
-1 168 -48 236 -165 234 -30 0 -64 -4 -76 -9z m97 -40 c33 -18 51 -70 57 -161
8 -142 -22 -221 -83 -221 -61 0 -89 64 -88 202 0 107 18 165 55 180 31 12 36
12 59 0z"/>
<path d="M5840 4720 l0 -40 3630 0 3630 0 0 40 0 40 -3630 0 -3630 0 0 -40z"/>
<path d="M4490 4610 l0 -40 345 0 345 0 0 40 0 40 -345 0 -345 0 0 -40z"/>
<path d="M8392 4175 c-44 -20 -112 -73 -112 -89 0 -7 5 -17 11 -23 8 -8 23 -2
56 23 24 19 49 34 54 34 19 0 19 -51 -1 -183 -43 -296 -17 -351 135 -279 139
66 304 306 307 445 1 41 -3 53 -21 68 -45 37 -131 12 -185 -52 -25 -30 -26
-33 -10 -50 16 -17 18 -17 49 16 18 19 39 35 47 35 89 0 9 -226 -119 -340 -46
-40 -102 -72 -115 -64 -13 8 -9 92 12 224 23 146 25 200 7 223 -17 24 -75 30
-115 12z"/>
<path d="M9300 3920 c-9 -17 -8 -20 10 -20 11 0 23 -7 27 -16 5 -14 -78 -429
-95 -472 -3 -10 6 -12 38 -10 l44 3 22 100 c26 121 29 130 67 178 57 73 117
80 117 14 0 -18 -9 -66 -20 -107 -24 -92 -26 -153 -4 -174 9 -10 33 -16 58
-16 34 0 51 7 82 34 34 29 37 35 25 50 -12 14 -16 14 -43 -9 -59 -50 -69 -24
-38 104 42 173 29 221 -61 221 -39 0 -56 -6 -92 -34 l-45 -34 14 61 c8 34 19
78 24 97 6 19 10 38 10 43 0 4 -29 7 -65 7 -54 0 -66 -3 -75 -20z"/>
<path d="M8998 3853 c-16 -33 -33 -52 -55 -62 -43 -19 -51 -41 -14 -41 15 0
30 -2 33 -5 3 -3 -5 -49 -18 -103 -28 -114 -30 -188 -8 -220 13 -19 24 -22 75
-22 56 0 63 3 102 39 36 34 39 41 28 55 -12 14 -16 14 -42 -8 -59 -50 -99 -41
-99 21 0 18 12 81 26 138 l26 105 69 0 c67 0 69 1 69 25 0 24 -2 25 -64 25
l-64 0 9 38 c13 57 12 62 -21 62 -26 0 -33 -7 -52 -47z"/>
<path d="M9904 3781 c-136 -62 -195 -289 -94 -368 8 -7 44 -12 80 -13 54 0 74
5 115 29 70 40 80 53 56 75 -17 16 -20 15 -48 -8 -87 -73 -173 -56 -173 34 0
25 5 40 13 40 49 1 155 23 187 40 69 35 92 119 45 165 -20 21 -34 25 -82 25
-35 0 -74 -8 -99 -19z m114 -33 c19 -19 14 -63 -10 -85 -40 -35 -148 -59 -148
-33 0 22 30 68 65 99 37 32 72 40 93 19z"/>
<path d="M10332 3779 c-81 -41 -132 -133 -132 -241 0 -97 41 -138 138 -138 76
0 118 16 165 65 44 45 67 110 67 188 0 100 -45 147 -142 147 -34 0 -68 -8 -96
-21z m137 -45 c25 -32 27 -77 5 -155 -22 -79 -74 -139 -119 -139 -59 0 -82 43
-71 128 20 141 128 238 185 166z"/>
<path d="M6877 3113 c-15 -15 -5 -31 23 -36 26 -6 30 -11 30 -41 0 -19 -34
-185 -75 -369 -41 -183 -75 -336 -75 -340 0 -4 22 -7 50 -7 43 0 50 3 55 23 3
12 16 75 30 140 29 136 57 198 118 262 36 37 50 45 80 45 20 0 39 -5 43 -12
14 -23 6 -95 -25 -227 -36 -150 -35 -188 6 -221 45 -35 105 -21 178 43 40 34
40 35 21 56 l-19 21 -39 -36 c-22 -19 -44 -34 -50 -32 -32 11 -31 37 7 197 39
165 40 201 10 248 -19 29 -81 46 -123 33 -48 -13 -97 -46 -131 -88 l-30 -37
44 175 c25 96 45 183 45 193 0 15 -11 17 -83 17 -46 0 -87 -3 -90 -7z"/>
<path d="M13107 3113 c-15 -15 -5 -31 23 -36 26 -6 30 -11 30 -39 0 -18 -8
-70 -17 -116 -14 -67 -20 -81 -33 -76 -8 4 -38 11 -67 16 -115 21 -216 -40
-280 -169 -34 -69 -38 -85 -41 -172 -5 -114 10 -160 60 -191 66 -40 145 -15
220 69 l47 52 -6 -34 c-12 -79 52 -126 129 -94 43 18 108 74 108 93 0 28 -30
26 -67 -5 -43 -36 -58 -38 -72 -12 -11 20 2 92 88 470 28 123 51 230 51 237 0
11 -19 14 -83 14 -46 0 -87 -3 -90 -7z m-60 -304 c36 -14 43 -25 43 -79 0
-105 -51 -227 -124 -300 -47 -45 -94 -56 -123 -27 -38 38 -21 202 31 305 26
52 46 73 91 96 36 19 45 19 82 5z"/>
<path d="M15010 3100 c0 -13 7 -20 18 -20 24 0 42 -19 42 -45 0 -12 -27 -143
-61 -291 -33 -148 -61 -292 -62 -320 -3 -124 97 -151 204 -55 41 36 43 41 28
56 -15 15 -20 14 -63 -17 -46 -32 -48 -32 -62 -13 -17 23 -20 7 67 399 38 171
69 313 69 318 0 4 -40 8 -90 8 -83 0 -90 -1 -90 -20z"/>
<path d="M5321 3057 c-6 -14 -13 -41 -16 -61 l-7 -36 51 0 c50 0 50 0 60 38
20 78 21 77 -32 80 -42 3 -48 1 -56 -21z"/>
<path d="M6484 2963 c-36 -95 -63 -123 -113 -123 -16 0 -31 -18 -31 -36 0 -2
20 -4 45 -4 26 0 45 -5 45 -11 0 -6 -14 -73 -32 -148 -19 -79 -32 -165 -32
-204 -1 -63 1 -71 27 -92 61 -54 148 -41 229 34 46 42 51 50 39 65 -19 23 -33
20 -65 -13 -59 -61 -118 -62 -131 -2 -5 25 56 339 71 363 3 5 43 8 90 8 l84 0
0 30 0 30 -80 0 c-44 0 -80 3 -80 8 1 4 7 33 14 64 8 31 11 59 8 62 -3 3 -21
6 -39 6 -30 0 -36 -4 -49 -37z"/>
<path d="M2302 2855 c-44 -20 -112 -73 -112 -89 0 -7 5 -17 11 -23 8 -8 23 -2
56 23 24 19 49 34 54 34 19 0 19 -51 -1 -183 -43 -296 -17 -351 135 -279 139
66 304 306 307 445 1 41 -3 53 -21 68 -45 37 -131 12 -185 -52 -25 -30 -26
-33 -10 -50 16 -17 18 -17 49 16 18 19 39 35 47 35 89 0 9 -226 -119 -340 -46
-40 -102 -72 -115 -64 -13 8 -9 92 12 224 23 146 25 200 7 223 -17 24 -75 30
-115 12z"/>
<path d="M5717 2859 c-90 -21 -130 -66 -130 -147 0 -56 22 -85 113 -148 73
-50 103 -90 93 -124 -14 -43 -29 -61 -64 -71 -74 -23 -140 9 -153 72 -4 23
-11 29 -30 29 -21 0 -26 -7 -35 -50 -6 -28 -11 -57 -11 -65 0 -22 74 -38 175
-39 71 -1 98 3 130 19 54 27 85 76 85 134 0 64 -26 101 -114 160 -79 53 -96
74 -96 114 0 89 179 95 197 7 4 -25 10 -30 34 -30 26 0 28 4 39 56 7 31 8 60
3 64 -10 11 -126 30 -168 29 -16 -1 -47 -5 -68 -10z"/>
<path d="M7679 2861 c-40 -8 -114 -44 -143 -69 -35 -32 -75 -99 -96 -163 -29
-84 -26 -203 6 -245 42 -56 70 -69 147 -68 85 2 125 17 190 75 l48 42 -20 20
-20 20 -31 -27 c-51 -42 -90 -58 -143 -59 -42 -1 -53 3 -73 27 -19 22 -24 38
-24 87 l0 59 38 0 c127 0 256 47 292 106 22 35 29 99 16 141 -15 46 -103 72
-187 54z m78 -67 c20 -20 24 -31 19 -57 -14 -71 -61 -103 -171 -117 -33 -4
-62 -6 -64 -4 -2 2 4 23 13 47 29 77 111 155 164 157 7 0 24 -12 39 -26z"/>
<path d="M8325 2851 c-22 -10 -55 -34 -73 -53 -31 -33 -32 -35 -14 -51 17 -16
20 -15 43 9 35 38 57 48 75 33 21 -17 18 -47 -31 -259 -25 -107 -45 -198 -45
-202 0 -4 22 -8 50 -8 43 0 50 3 55 23 3 12 16 74 30 137 42 192 118 310 200
310 29 0 37 -5 46 -27 13 -35 12 -44 -70 -405 l-9 -38 53 0 52 0 17 88 c41
210 84 311 157 362 36 26 85 26 99 1 15 -30 13 -56 -20 -189 -38 -155 -39
-214 -5 -247 40 -41 107 -28 178 35 66 57 36 94 -32 40 -79 -64 -89 -22 -41
177 32 134 37 191 18 226 -41 77 -144 71 -233 -14 l-53 -50 -6 34 c-13 71 -92
103 -170 68 -25 -10 -65 -41 -90 -67 l-46 -48 0 41 c0 77 -60 110 -135 74z"/>
<path d="M9489 2861 c-40 -8 -114 -44 -143 -69 -35 -32 -75 -99 -96 -163 -29
-84 -26 -203 6 -245 42 -56 70 -69 147 -68 85 2 125 17 190 75 l48 42 -20 20
-20 20 -31 -27 c-51 -42 -90 -58 -143 -59 -42 -1 -53 3 -73 27 -19 22 -24 38
-24 87 l0 59 38 0 c127 0 256 47 292 106 22 35 29 99 16 141 -15 46 -103 72
-187 54z m78 -67 c20 -20 24 -31 19 -57 -14 -71 -61 -103 -171 -117 -33 -4
-62 -6 -64 -4 -2 2 4 23 13 47 29 77 111 155 164 157 7 0 24 -12 39 -26z"/>
<path d="M10000 2855 c-69 -22 -124 -75 -167 -162 -34 -69 -38 -85 -41 -172
-5 -114 10 -160 60 -191 66 -40 145 -15 220 69 l47 52 -6 -34 c-12 -79 52
-126 129 -94 43 18 108 74 108 93 0 28 -30 26 -67 -5 -68 -56 -89 -33 -68 74
13 69 71 325 81 356 7 24 -33 31 -63 12 -22 -14 -28 -14 -75 1 -60 19 -97 19
-158 1z m117 -46 c37 -14 43 -25 43 -85 0 -95 -44 -206 -111 -279 -87 -94
-160 -72 -159 48 1 67 24 159 55 215 31 57 46 73 90 96 36 19 45 19 82 5z"/>
<path d="M10617 2859 c-90 -21 -130 -66 -130 -147 0 -56 22 -85 113 -148 73
-50 103 -90 93 -124 -14 -43 -29 -61 -64 -71 -74 -23 -140 9 -153 72 -4 23
-11 29 -30 29 -21 0 -26 -7 -35 -50 -6 -28 -11 -57 -11 -65 0 -22 74 -38 175
-39 71 -1 98 3 130 19 54 27 85 76 85 134 0 64 -26 101 -114 160 -79 53 -96
74 -96 114 0 89 179 95 197 7 4 -25 10 -30 34 -30 26 0 28 4 39 56 7 31 8 60
3 64 -10 11 -126 30 -168 29 -16 -1 -47 -5 -68 -10z"/>
<path d="M11026 2855 c-21 -7 -56 -30 -77 -51 -36 -35 -38 -39 -22 -56 15 -17
18 -16 54 17 43 38 49 41 67 23 18 -18 15 -40 -19 -178 -49 -203 -41 -267 41
-291 62 -19 112 1 180 70 l55 56 -3 -42 c-3 -34 1 -47 22 -67 14 -15 36 -26
52 -26 37 0 104 34 139 70 23 24 26 32 15 45 -14 16 -40 20 -40 6 0 -5 -16
-19 -35 -31 -29 -18 -38 -20 -51 -9 -19 15 -16 33 37 263 21 93 39 177 39 187
0 16 -8 19 -48 19 l-48 0 -33 -147 c-18 -81 -42 -165 -52 -186 -26 -49 -85
-114 -122 -133 -25 -14 -31 -14 -53 1 -33 21 -32 69 6 220 41 168 38 219 -17
244 -30 14 -39 13 -87 -4z"/>
<path d="M11665 2851 c-22 -10 -55 -34 -73 -53 -31 -33 -32 -35 -14 -51 17
-16 20 -15 43 9 35 38 57 48 75 33 21 -17 18 -43 -31 -256 -25 -107 -45 -199
-45 -204 0 -5 22 -9 49 -9 39 0 51 4 55 18 2 9 17 73 31 142 29 134 49 181
102 246 56 69 123 81 123 23 0 -15 7 -19 34 -19 33 0 35 2 45 50 6 28 11 57
11 65 0 31 -91 30 -151 0 -14 -8 -47 -35 -72 -61 l-47 -47 0 40 c0 77 -60 110
-135 74z"/>
<path d="M12419 2861 c-40 -8 -114 -44 -143 -69 -35 -32 -75 -99 -96 -163 -29
-84 -26 -203 6 -245 42 -56 70 -69 147 -68 85 2 125 17 190 75 l48 42 -20 20
-20 20 -31 -27 c-51 -42 -90 -58 -143 -59 -42 -1 -53 3 -73 27 -19 22 -24 38
-24 87 l0 59 38 0 c127 0 256 47 292 106 22 35 29 99 16 141 -15 46 -103 72
-187 54z m78 -67 c20 -20 24 -31 19 -57 -14 -71 -61 -103 -171 -117 -33 -4
-62 -6 -64 -4 -2 2 4 23 13 47 29 77 111 155 164 157 7 0 24 -12 39 -26z"/>
<path d="M13772 2855 c-44 -20 -112 -73 -112 -89 0 -7 5 -17 11 -23 8 -8 23
-2 56 23 24 19 49 34 54 34 19 0 19 -51 -1 -183 -43 -296 -17 -351 135 -279
139 66 304 306 307 445 1 41 -3 53 -21 68 -45 37 -131 12 -185 -52 -25 -30
-26 -33 -10 -50 16 -17 18 -17 49 16 18 19 39 35 47 35 89 0 9 -226 -119 -340
-46 -40 -102 -72 -115 -64 -13 8 -9 92 12 224 23 146 25 200 7 223 -17 24 -75
30 -115 12z"/>
<path d="M14510 2855 c-69 -22 -124 -75 -167 -162 -34 -69 -38 -85 -41 -172
-5 -114 10 -160 60 -191 66 -40 145 -15 220 69 l47 52 -6 -34 c-12 -79 52
-126 129 -94 43 18 108 74 108 93 0 28 -30 26 -67 -5 -68 -56 -89 -33 -68 74
13 69 71 325 81 356 7 24 -33 31 -63 12 -22 -14 -28 -14 -75 1 -60 19 -97 19
-158 1z m117 -46 c37 -14 43 -25 43 -85 0 -95 -44 -206 -111 -279 -87 -94
-160 -72 -159 48 1 67 24 159 55 215 31 57 46 73 90 96 36 19 45 19 82 5z"/>
<path d="M15366 2855 c-21 -7 -56 -30 -77 -51 -36 -35 -38 -39 -22 -56 15 -17
18 -16 54 17 43 38 49 41 67 23 18 -18 15 -40 -19 -178 -49 -203 -41 -267 41
-291 62 -19 112 1 180 70 l55 56 -3 -42 c-3 -34 1 -47 22 -67 14 -15 36 -26
52 -26 37 0 104 34 139 70 23 24 26 32 15 45 -14 16 -40 20 -40 6 0 -5 -16
-19 -35 -31 -29 -18 -38 -20 -51 -9 -19 15 -16 33 37 263 21 93 39 177 39 187
0 16 -8 19 -48 19 l-48 0 -33 -147 c-18 -81 -42 -165 -52 -186 -26 -49 -85
-114 -122 -133 -25 -14 -31 -14 -53 1 -33 21 -32 69 6 220 41 168 38 219 -17
244 -30 14 -39 13 -87 -4z"/>
<path d="M16209 2861 c-40 -8 -114 -44 -143 -69 -35 -32 -75 -99 -96 -163 -29
-84 -26 -203 6 -245 42 -56 70 -69 147 -68 85 2 125 17 190 75 l48 42 -20 20
-20 20 -31 -27 c-51 -42 -90 -58 -143 -59 -42 -1 -53 3 -73 27 -19 22 -24 38
-24 87 l0 59 38 0 c127 0 256 47 292 106 22 35 29 99 16 141 -15 46 -103 72
-187 54z m78 -67 c20 -20 24 -31 19 -57 -14 -71 -61 -103 -171 -117 -33 -4
-62 -6 -64 -4 -2 2 4 23 13 47 29 77 111 155 164 157 7 0 24 -12 39 -26z"/>
<path d="M5200 2841 c0 -13 8 -21 23 -23 33 -5 33 -52 -3 -211 -47 -212 -39
-279 34 -292 41 -8 100 15 144 57 59 58 28 90 -37 38 -84 -68 -90 -22 -31 243
23 100 43 188 45 195 3 9 -18 12 -85 12 -82 0 -90 -2 -90 -19z"/>
<path d="M2775 2461 c-16 -10 -38 -27 -48 -38 -15 -18 -16 -22 -3 -33 13 -10
20 -8 42 9 35 27 64 28 64 0 0 -11 -11 -68 -24 -127 -14 -59 -29 -126 -34
-149 l-10 -43 42 0 42 0 22 108 c25 119 57 183 111 219 38 26 40 26 61 13 20
-12 16 -64 -14 -197 -34 -146 -34 -143 13 -143 l39 0 17 93 c20 107 35 148 72
195 27 36 78 63 100 55 19 -7 16 -75 -7 -163 -38 -146 -20 -189 76 -182 11 1
40 18 63 38 38 33 41 38 27 52 -13 13 -18 12 -46 -12 -63 -53 -70 -29 -35 123
27 121 27 150 -3 184 -24 27 -100 23 -141 -7 -18 -13 -38 -32 -45 -42 -13 -17
-14 -16 -21 7 -14 44 -35 59 -86 59 -47 0 -90 -24 -126 -70 -10 -13 -13 -10
-19 15 -4 17 -11 36 -17 43 -14 18 -78 15 -112 -7z"/>
<path d="M3654 2461 c-85 -39 -144 -142 -144 -252 0 -47 5 -63 26 -88 47 -57
138 -60 226 -8 63 37 72 50 49 71 -17 16 -20 15 -48 -8 -87 -73 -173 -56 -173
34 0 25 5 40 13 40 49 1 155 23 187 40 69 35 92 119 45 165 -20 21 -34 25 -82
25 -35 0 -74 -8 -99 -19z m114 -33 c19 -19 14 -63 -10 -85 -40 -35 -148 -59
-148 -33 0 22 30 68 65 99 37 32 72 40 93 19z"/>
<path d="M4065 2448 c-67 -45 -108 -124 -113 -219 -5 -87 10 -127 55 -146 47
-19 102 -3 153 46 37 35 40 36 40 15 0 -82 88 -93 158 -21 29 30 31 35 18 46
-13 11 -21 9 -47 -13 -64 -54 -69 -30 -30 147 18 78 35 150 38 161 5 16 1 18
-28 12 -38 -8 -37 -8 -129 0 -62 5 -68 4 -115 -28z m146 -18 c47 -26 7 -184
-66 -257 -48 -49 -77 -54 -101 -18 -37 57 12 222 79 264 36 23 59 26 88 11z"/>
<path d="M4543 2463 c-40 -20 -67 -73 -58 -113 7 -31 55 -79 105 -105 52 -27
66 -82 28 -109 -47 -33 -138 -10 -138 35 0 12 -7 19 -19 19 -24 0 -29 -7 -37
-58 l-6 -40 48 -8 c130 -20 210 1 239 63 23 49 13 94 -31 132 -19 17 -39 31
-44 31 -20 0 -70 53 -70 75 0 66 116 73 140 9 16 -41 45 -31 57 22 10 43 9 46
-14 55 -39 15 -164 10 -200 -8z"/>
<path d="M6447 1773 c-15 -15 -5 -31 23 -36 27 -6 30 -10 30 -43 0 -19 -34
-186 -75 -369 -41 -184 -75 -337 -75 -340 0 -3 22 -5 50 -5 43 0 50 3 55 23 3
12 16 75 30 140 28 135 49 186 105 250 44 49 83 69 116 56 41 -15 39 -56 -16
-282 -13 -54 -18 -100 -14 -122 16 -88 112 -96 204 -16 45 38 45 39 26 60
l-19 21 -38 -35 c-44 -39 -51 -41 -70 -19 -14 17 -15 9 35 230 32 138 27 190
-20 221 -60 39 -172 3 -230 -72 -15 -20 -28 -34 -30 -33 -1 2 17 82 41 178 25
96 45 181 45 188 0 9 -23 12 -83 12 -46 0 -87 -3 -90 -7z"/>
<path d="M8377 1773 c-15 -15 -5 -31 23 -36 27 -6 30 -10 30 -43 0 -19 -34
-186 -75 -369 -41 -184 -75 -337 -75 -340 0 -3 22 -5 50 -5 43 0 50 3 55 23 3
12 16 75 30 140 28 135 49 186 105 250 44 49 83 69 116 56 41 -15 39 -56 -16
-282 -13 -54 -18 -100 -14 -122 16 -88 112 -96 204 -16 45 38 45 39 26 60
l-19 21 -38 -35 c-44 -39 -51 -41 -70 -19 -14 17 -15 9 35 230 32 138 27 190
-20 221 -60 39 -172 3 -230 -72 -15 -20 -28 -34 -30 -33 -1 2 17 82 41 178 25
96 45 181 45 188 0 9 -23 12 -83 12 -46 0 -87 -3 -90 -7z"/>
<path d="M13277 1773 c-14 -13 -7 -33 11 -33 25 0 42 -19 42 -47 0 -13 -27
-146 -61 -295 -65 -291 -72 -352 -46 -391 34 -52 116 -42 188 22 41 37 43 41
27 56 -15 16 -19 15 -58 -16 -33 -27 -44 -31 -58 -22 -26 16 -19 60 58 410 39
172 70 315 70 318 0 8 -166 6 -173 -2z"/>
<path d="M15187 1773 c-14 -13 -7 -33 11 -33 25 0 42 -19 42 -47 0 -13 -27
-146 -61 -295 -65 -291 -72 -352 -46 -391 34 -52 116 -42 188 22 41 37 43 41
27 56 -15 16 -19 15 -58 -16 -33 -27 -44 -31 -58 -22 -26 16 -19 60 58 410 39
172 70 315 70 318 0 8 -166 6 -173 -2z"/>
<path d="M4901 1717 c-6 -14 -13 -41 -16 -61 l-7 -36 51 0 c50 0 50 0 60 38
20 78 21 77 -32 80 -42 3 -48 1 -56 -21z"/>
<path d="M11811 1717 c-6 -14 -13 -41 -16 -61 l-7 -36 51 0 c50 0 50 0 60 38
20 78 21 77 -32 80 -42 3 -48 1 -56 -21z"/>
<path d="M6060 1639 c0 -6 -10 -33 -21 -60 -22 -50 -57 -79 -97 -79 -11 0 -22
-9 -25 -20 -5 -18 0 -20 39 -20 30 0 44 -4 44 -13 0 -7 -16 -85 -36 -173 -48
-213 -39 -271 46 -294 61 -16 121 3 183 60 45 42 50 49 38 64 -19 23 -27 20
-67 -18 -59 -57 -116 -56 -129 2 -6 27 15 141 53 297 l17 70 88 3 87 3 0 29 0
30 -80 0 c-44 0 -80 3 -80 8 0 4 6 33 14 65 l13 57 -43 0 c-25 0 -44 -5 -44
-11z"/>
<path d="M7990 1639 c0 -6 -10 -33 -21 -60 -22 -50 -57 -79 -97 -79 -11 0 -22
-9 -25 -20 -5 -18 0 -20 39 -20 30 0 44 -4 44 -13 0 -7 -16 -85 -36 -173 -48
-213 -39 -271 46 -294 61 -16 121 3 183 60 45 42 50 49 38 64 -19 23 -27 20
-67 -18 -59 -57 -116 -56 -129 2 -6 27 15 141 53 297 l17 70 88 3 87 3 0 29 0
30 -80 0 c-44 0 -80 3 -80 8 0 4 6 33 14 65 l13 57 -43 0 c-25 0 -44 -5 -44
-11z"/>
<path d="M11360 1639 c0 -6 -10 -33 -21 -60 -22 -50 -57 -79 -97 -79 -11 0
-22 -9 -25 -20 -5 -18 0 -20 39 -20 30 0 44 -4 44 -13 0 -7 -16 -85 -36 -173
-48 -213 -39 -271 46 -294 61 -16 121 3 183 60 45 42 50 49 38 64 -19 23 -27
20 -67 -18 -59 -57 -116 -56 -129 2 -6 27 15 141 53 297 l17 70 88 3 87 3 0
29 0 30 -80 0 c-44 0 -80 3 -80 8 0 4 6 33 14 65 l13 57 -43 0 c-25 0 -44 -5
-44 -11z"/>
<path d="M2138 1516 c-44 -16 -118 -73 -118 -91 0 -7 6 -18 13 -24 11 -8 18
-6 33 10 10 12 32 28 48 36 50 26 53 10 28 -160 -31 -213 -28 -282 12 -309 59
-40 224 67 318 206 156 228 140 407 -29 325 -56 -27 -98 -76 -82 -95 16 -20
24 -18 58 17 20 20 39 29 53 27 21 -3 23 -8 23 -59 0 -77 -49 -172 -130 -255
-58 -59 -120 -99 -137 -88 -14 9 -8 105 12 229 21 127 25 192 12 212 -7 11
-55 34 -70 33 -4 -1 -24 -7 -44 -14z"/>
<path d="M5303 1520 c-94 -20 -135 -64 -135 -145 0 -59 22 -88 110 -147 85
-58 109 -96 91 -147 -19 -53 -101 -78 -163 -50 -23 11 -56 62 -56 88 0 6 -11
11 -24 11 -21 0 -26 -7 -35 -50 -6 -28 -11 -57 -11 -65 0 -21 73 -37 175 -39
73 -1 97 3 130 20 55 29 85 75 85 133 0 64 -26 101 -114 160 -42 28 -80 60
-86 70 -39 75 47 144 134 107 26 -11 41 -26 51 -51 12 -26 21 -35 39 -35 21 0
26 7 35 50 6 28 11 55 11 60 0 23 -168 44 -237 30z"/>
<path d="M7280 1523 c-129 -22 -215 -98 -260 -234 -29 -84 -26 -203 6 -245 41
-55 70 -69 143 -68 79 0 156 32 209 87 32 33 32 34 13 51 -18 17 -21 16 -65
-18 -61 -46 -117 -62 -168 -47 -48 15 -58 35 -58 110 l0 61 38 0 c69 0 167 20
217 45 68 33 95 75 95 148 0 66 -17 90 -77 106 -39 11 -49 11 -93 4z m57 -69
c20 -20 24 -31 19 -57 -14 -70 -69 -106 -183 -121 -63 -8 -66 0 -29 72 37 71
104 129 154 131 7 1 24 -11 39 -25z"/>
<path d="M9210 1523 c-129 -22 -215 -98 -260 -234 -29 -84 -26 -203 6 -245 41
-55 70 -69 143 -68 79 0 156 32 209 87 32 33 32 34 13 51 -18 17 -21 16 -65
-18 -61 -46 -117 -62 -168 -47 -48 15 -58 35 -58 110 l0 61 38 0 c69 0 167 20
217 45 68 33 95 75 95 148 0 66 -17 90 -77 106 -39 11 -49 11 -93 4z m57 -69
c20 -20 24 -31 19 -57 -14 -70 -69 -106 -183 -121 -63 -8 -66 0 -29 72 37 71
104 129 154 131 7 1 24 -11 39 -25z"/>
<path d="M9745 1521 c-119 -20 -203 -107 -240 -248 -33 -127 -8 -236 65 -278
52 -30 169 -27 234 6 91 45 149 141 168 278 25 175 -64 269 -227 242z m98 -70
c27 -26 37 -85 26 -155 -21 -131 -63 -221 -122 -256 -62 -38 -129 -16 -148 50
-22 74 19 251 77 327 47 61 122 77 167 34z"/>
<path d="M10166 1515 c-21 -7 -56 -30 -77 -51 -36 -35 -38 -39 -22 -56 15 -17
18 -16 55 18 24 21 46 33 55 30 8 -3 17 -6 19 -6 12 0 -1 -82 -41 -260 -25
-109 -45 -201 -45 -204 0 -3 22 -6 49 -6 l49 0 16 70 c9 39 23 103 32 143 21
93 54 158 110 214 51 51 81 54 102 11 10 -21 20 -28 42 -28 26 0 29 4 39 50 6
28 11 57 11 64 0 28 -91 30 -145 4 -11 -6 -44 -33 -72 -61 l-53 -51 0 41 c0
73 -50 105 -124 78z"/>
<path d="M10930 1523 c-129 -22 -215 -98 -260 -234 -29 -84 -26 -203 6 -245
41 -55 70 -69 143 -68 79 0 156 32 209 87 32 33 32 34 13 51 -18 17 -21 16
-65 -18 -61 -46 -117 -62 -168 -47 -48 15 -58 35 -58 110 l0 61 38 0 c69 0
167 20 217 45 68 33 95 75 95 148 0 66 -17 90 -77 106 -39 11 -49 11 -93 4z
m57 -69 c20 -20 24 -31 19 -57 -14 -70 -69 -106 -183 -121 -63 -8 -66 0 -29
72 37 71 104 129 154 131 7 1 24 -11 39 -25z"/>
<path d="M12283 1520 c-144 -29 -240 -157 -250 -336 -7 -109 16 -166 79 -194
52 -24 88 -25 155 -5 53 16 130 66 140 91 3 9 -1 22 -9 31 -14 13 -20 12 -58
-16 -82 -59 -173 -62 -199 -5 -37 83 16 284 94 353 69 60 136 49 149 -25 6
-30 11 -34 36 -34 24 0 31 5 36 28 10 45 14 61 20 81 4 16 -1 21 -28 25 -76
12 -125 14 -165 6z"/>
<path d="M12789 1523 c-15 -2 -51 -18 -80 -36 -103 -62 -164 -198 -158 -350 5
-99 27 -140 90 -158 62 -19 113 1 181 72 55 57 57 58 52 30 -9 -42 12 -87 46
-101 40 -17 99 2 151 49 41 37 43 41 27 57 -15 16 -19 15 -55 -15 -20 -17 -43
-31 -50 -31 -23 0 -33 36 -23 87 10 53 78 349 86 374 7 26 -35 32 -64 9 -22
-18 -27 -18 -51 -5 -31 15 -112 25 -152 18z m118 -70 c30 -40 8 -179 -42 -271
-70 -129 -174 -178 -205 -97 -42 110 39 338 134 381 38 17 97 11 113 -13z"/>
<path d="M13938 1516 c-44 -16 -118 -73 -118 -91 0 -7 6 -18 13 -24 11 -8 18
-6 33 10 10 12 32 28 48 36 50 26 53 10 28 -160 -31 -213 -28 -282 12 -309 59
-40 224 67 318 206 156 228 140 407 -29 325 -56 -27 -98 -76 -82 -95 16 -20
24 -18 58 17 20 20 39 29 53 27 21 -3 23 -8 23 -59 0 -77 -49 -172 -130 -255
-58 -59 -120 -99 -137 -88 -14 9 -8 105 12 229 21 127 25 192 12 212 -7 11
-55 34 -70 33 -4 -1 -24 -7 -44 -14z"/>
<path d="M14699 1523 c-15 -2 -51 -18 -80 -36 -103 -62 -164 -198 -158 -350 5
-99 27 -140 90 -158 62 -19 113 1 181 72 55 57 57 58 52 30 -9 -42 12 -87 46
-101 40 -17 99 2 151 49 41 37 43 41 27 57 -15 16 -19 15 -55 -15 -20 -17 -43
-31 -50 -31 -23 0 -33 36 -23 87 10 53 78 349 86 374 7 26 -35 32 -64 9 -22
-18 -27 -18 -51 -5 -31 15 -112 25 -152 18z m118 -70 c30 -40 8 -179 -42 -271
-70 -129 -174 -178 -205 -97 -42 110 39 338 134 381 38 17 97 11 113 -13z"/>
<path d="M15526 1515 c-21 -7 -56 -30 -77 -51 -36 -35 -38 -39 -22 -56 15 -17
18 -16 55 18 24 21 46 33 55 30 8 -3 17 -6 19 -6 11 0 1 -71 -26 -182 -50
-202 -41 -266 40 -288 65 -17 114 2 181 70 l57 58 -4 -36 c-13 -109 94 -132
196 -43 42 37 44 41 28 56 -15 16 -19 15 -58 -16 -33 -27 -44 -31 -58 -22 -25
16 -20 61 27 265 23 97 41 184 41 192 0 12 -11 16 -48 16 l-47 0 -29 -132
c-15 -73 -38 -156 -51 -184 -26 -58 -85 -128 -126 -150 -35 -18 -44 -18 -63 2
-24 23 -20 87 14 226 17 67 30 135 30 150 0 43 -20 76 -53 88 -36 12 -33 12
-81 -5z"/>
<path d="M16400 1523 c-129 -22 -215 -98 -260 -234 -29 -84 -26 -203 6 -245
41 -55 70 -69 143 -68 79 0 156 32 209 87 32 33 32 34 13 51 -18 17 -21 16
-65 -18 -61 -46 -117 -62 -168 -47 -48 15 -58 35 -58 110 l0 61 38 0 c69 0
167 20 217 45 68 33 95 75 95 148 0 66 -17 90 -77 106 -39 11 -49 11 -93 4z
m57 -69 c20 -20 24 -31 19 -57 -14 -70 -69 -106 -183 -121 -63 -8 -66 0 -29
72 37 71 104 129 154 131 7 1 24 -11 39 -25z"/>
<path d="M4780 1501 c0 -13 8 -21 23 -23 34 -5 33 -59 -2 -213 -34 -147 -39
-229 -16 -262 33 -48 117 -36 186 26 41 37 43 40 27 57 -16 16 -19 15 -53 -14
-40 -36 -60 -40 -74 -14 -11 21 -4 66 47 290 l39 172 -88 0 c-81 0 -89 -2 -89
-19z"/>
<path d="M11690 1501 c0 -13 8 -21 23 -23 34 -5 33 -59 -2 -213 -34 -147 -39
-229 -16 -262 33 -48 117 -36 186 26 41 37 43 40 27 57 -16 16 -19 15 -53 -14
-40 -36 -60 -40 -74 -14 -11 21 -4 66 47 290 l39 172 -88 0 c-81 0 -89 -2 -89
-19z"/>
<path d="M3068 1273 c-24 -6 -23 -29 2 -36 13 -3 20 -14 20 -29 0 -19 -50
-260 -94 -451 -4 -16 1 -18 37 -15 l41 3 22 108 c13 60 31 121 40 135 45 73
104 113 130 91 19 -16 17 -60 -6 -149 -33 -127 -25 -173 33 -194 23 -8 95 23
121 52 15 18 16 24 6 37 -11 13 -16 12 -42 -10 -17 -14 -36 -24 -42 -22 -15 5
-11 65 12 172 28 133 11 175 -73 175 -33 0 -53 -8 -90 -36 -36 -28 -46 -32
-42 -18 10 31 47 182 47 188 0 7 -96 6 -122 -1z"/>
<path d="M2738 1193 c-16 -33 -33 -53 -55 -63 -47 -22 -50 -40 -7 -40 29 0 34
-3 30 -17 -40 -138 -55 -267 -36 -303 27 -51 125 -44 188 15 31 28 34 35 23
49 -12 14 -16 14 -42 -8 -90 -76 -119 -26 -80 132 10 43 22 89 25 104 6 26 9
27 74 30 61 3 67 5 70 26 3 21 0 22 -62 22 l-66 0 7 28 c13 53 10 67 -19 70
-24 3 -30 -3 -50 -45z"/>
<path d="M3642 1119 c-142 -70 -193 -309 -80 -370 13 -7 46 -12 74 -12 54 1
96 18 152 61 31 23 32 26 16 43 -16 18 -18 17 -59 -12 -88 -63 -165 -44 -165
41 0 44 1 45 101 54 113 9 180 70 165 150 -4 19 -17 42 -29 51 -32 23 -123 19
-175 -6z m116 -31 c20 -20 14 -63 -11 -86 -27 -26 -77 -42 -125 -42 l-33 0 27
50 c40 73 109 111 142 78z"/>
<path d="M4073 1119 c-103 -51 -163 -209 -119 -314 33 -79 164 -94 257 -29 20
14 49 48 65 77 25 46 29 62 29 135 l0 83 -37 35 c-34 30 -44 34 -95 34 -39 0
-72 -7 -100 -21z m136 -45 c61 -78 -24 -294 -116 -294 -20 0 -41 8 -54 21 -19
19 -21 30 -17 83 13 156 125 269 187 190z"/>
</g>
</svg>
